<svg width="282" height="282" viewBox="0 0 282 282" fill="none" xmlns="http://www.w3.org/2000/svg">
<path d="M186.668 65.4034C197.245 56.5286 213.014 57.9081 221.889 68.4844C230.764 79.0612 229.384 94.83 218.808 103.705L183.034 133.722C182.748 133.924 182.468 134.14 182.195 134.369L157.122 155.406C146.581 163.247 131.624 161.599 123.07 151.404C114.195 140.828 115.574 125.059 126.151 116.184L186.668 65.4034Z" fill="#FFAA70"/>
<path d="M228 197.334C228 211.141 216.807 222.334 203 222.334C189.193 222.334 178 211.141 178 197.334V175.534L228 133.579V197.334Z" fill="#FFAA70"/>
<rect x="152.023" y="94.4751" width="50" height="58.7728" rx="25" transform="rotate(50 152.023 94.4751)" fill="#FF75A0"/>
<path d="M126.297 116.061C136.874 107.186 152.789 108.444 161.664 119.021V119.021C170.539 129.597 169.013 145.489 158.436 154.364V154.364C147.859 163.239 131.945 161.981 123.07 151.405V151.405C114.195 140.828 115.72 124.936 126.297 116.061V116.061Z" fill="#FF75A0"/>
<path d="M170.599 98.3375C176.257 93.9172 184.427 94.9204 188.847 100.578V100.578C193.267 106.236 192.264 114.406 186.606 118.826L173.251 129.26C167.594 133.68 159.424 132.677 155.004 127.019V127.019C150.583 121.362 151.586 113.192 157.244 108.772L170.599 98.3375Z" fill="#FFAA70"/>
<path d="M105 175.568V197.334C105 211.141 93.8071 222.334 80 222.334C66.1929 222.334 55 211.141 55 197.334V133.613L105 175.568Z" fill="#FF75A0"/>
<path d="M61.0696 68.4847C69.9446 57.908 85.7135 56.5288 96.2903 65.4036L156.808 116.184C158.357 117.484 159.707 118.932 160.858 120.49L162.195 119.368C167.483 114.931 175.367 115.621 179.805 120.91C183.343 125.126 183.621 130.993 180.908 135.448L157.17 155.366C156.384 155.673 155.576 155.898 154.757 156.04C145.741 162.151 133.425 161.834 124.668 154.486L64.1507 103.705C53.5742 94.8303 52.1947 79.0614 61.0696 68.4847Z" fill="#FF75A0"/>
<path d="M151.308 95.4954C156.966 91.0752 165.135 92.0783 169.556 97.736V97.736C173.976 103.394 172.973 111.563 167.315 115.984L153.96 126.418C148.302 130.838 140.133 129.835 135.712 124.177V124.177C131.292 118.52 132.295 110.35 137.953 105.93L151.308 95.4954Z" fill="#FFAA70"/>
</svg>
